<?xml version="1.0" standalone="no"?>
<!DOCTYPE svg PUBLIC "-//W3C//DTD SVG 20010904//EN"
 "http://www.w3.org/TR/2001/REC-SVG-20010904/DTD/svg10.dtd">
<svg version="1.0" xmlns="http://www.w3.org/2000/svg"
 width="128.000000pt" height="128.000000pt" viewBox="0 0 128.000000 128.000000"
 preserveAspectRatio="xMidYMid meet">
<metadata>
Created by potrace 1.12, written by Peter Selinger 2001-2015
</metadata>
<g transform="translate(0.000000,128.000000) scale(0.100000,-0.100000)"
fill="#000000" stroke="none">
<path d="M500 1184 c-25 -7 -58 -14 -73 -14 -35 0 -163 -65 -232 -118 -137
-104 -181 -272 -110 -418 33 -67 56 -85 153 -120 42 -15 83 -32 90 -37 16 -12
15 -65 -2 -147 -7 -36 -11 -70 -9 -77 13 -34 101 -4 197 65 47 35 49 35 75 18
54 -35 118 -59 171 -64 45 -4 63 -11 98 -41 95 -80 114 -91 155 -91 39 0 39 0
33 33 -4 17 -10 53 -13 78 l-5 45 76 28 c68 25 79 33 96 67 15 28 20 58 20
112 0 79 -16 113 -80 167 -28 24 -29 27 -19 70 20 88 -13 198 -82 274 -72 79
-139 119 -258 155 -116 35 -205 39 -281 15z m231 -63 c79 -27 211 -95 236
-123 38 -40 66 -118 71 -195 l5 -73 -79 -1 c-77 -1 -78 -2 -29 -10 73 -12 95
-18 95 -28 0 -22 -88 -113 -129 -133 -39 -19 -62 -23 -156 -23 -98 0 -114 -3
-147 -23 -42 -26 -45 -22 -27 43 17 63 53 100 130 139 l72 36 -68 0 -67 0 -64
-62 -64 -61 0 -83 0 -83 -37 -26 c-21 -14 -42 -25 -47 -25 -5 0 -6 33 -3 77 6
86 -2 113 -38 113 -39 0 -55 11 -55 36 0 30 -24 31 -37 2 -9 -18 -10 -13 -6
25 6 55 -4 60 -42 20 -29 -32 -31 -23 -10 37 24 69 -6 85 -43 23 -19 -34 -22
-35 -22 -14 0 13 11 44 26 68 27 46 24 68 -7 60 -24 -6 -24 1 1 33 27 34 26
60 -2 60 -21 1 -18 5 19 38 22 20 46 47 52 59 16 31 105 71 186 83 39 5 90 14
115 19 71 14 113 12 171 -8z m383 -506 c17 -13 18 -15 3 -15 -22 0 -22 -26 1
-39 16 -10 16 -10 0 -11 -23 0 -23 -23 -1 -58 l17 -27 -22 19 c-20 17 -22 17
-28 2 -4 -10 -2 -28 5 -42 14 -31 14 -45 0 -21 -12 21 -39 23 -39 2 0 -8 -7
-15 -15 -15 -8 0 -15 -9 -15 -20 0 -13 -7 -20 -18 -20 -31 0 -41 -20 -35 -71
3 -27 2 -49 -3 -49 -5 0 -36 22 -69 50 l-60 49 -78 1 c-76 0 -147 19 -147 39
0 5 14 20 31 32 24 17 53 24 113 29 45 4 106 17 137 29 54 20 189 122 189 141
0 14 12 12 34 -5z"/>
</g>
</svg>
