<?xml version="1.0" standalone="no"?>
<!DOCTYPE svg PUBLIC "-//W3C//DTD SVG 20010904//EN"
 "http://www.w3.org/TR/2001/REC-SVG-20010904/DTD/svg10.dtd">
<svg version="1.0" xmlns="http://www.w3.org/2000/svg"
 width="128.000000pt" height="128.000000pt" viewBox="0 0 128.000000 128.000000"
 preserveAspectRatio="xMidYMid meet">
<metadata>
Created by potrace 1.12, written by Peter Selinger 2001-2015
</metadata>
<g transform="translate(0.000000,128.000000) scale(0.100000,-0.100000)"
fill="#000000" stroke="none">
<path d="M673 1171 c-55 -7 -93 -29 -127 -75 -17 -22 -22 -47 -26 -128 l-5
-101 -55 -12 c-30 -6 -66 -17 -79 -24 -23 -12 -23 -17 -18 -86 8 -107 16 -117
87 -113 l58 3 7 -40 c3 -22 10 -114 16 -205 11 -206 18 -257 35 -271 17 -14
177 -2 201 16 17 13 16 50 -14 422 l-6 71 67 7 c76 8 74 6 101 121 23 100 28
94 -80 94 l-95 0 0 49 c0 48 0 48 38 55 20 3 60 6 88 6 58 0 63 6 84 102 17
75 9 104 -31 112 -38 7 -174 6 -246 -3z m199 -67 c3 -3 4 -14 1 -25 -4 -15
-14 -19 -49 -19 -57 0 -108 -21 -129 -53 -13 -20 -16 -46 -13 -124 l3 -98 81
-3 c79 -3 81 -3 77 -26 -4 -19 -13 -24 -51 -29 -26 -4 -64 -11 -84 -17 l-38
-11 0 -108 c0 -94 -2 -109 -17 -115 -10 -3 -24 -9 -30 -12 -22 -10 -16 64 7
93 28 36 26 63 -5 63 -24 0 -29 8 -26 42 3 28 -44 51 -89 45 l-40 -5 0 38 c0
41 11 50 61 50 63 0 69 11 69 118 0 99 12 166 32 178 31 19 225 34 240 18z
m-182 -710 c0 -7 -16 -14 -35 -16 l-35 -4 27 28 c26 27 42 24 43 -8z m9 -145
c1 -30 -3 -38 -21 -42 -30 -8 -35 -1 -15 21 23 25 21 41 -5 51 l-21 8 23 23
24 24 7 -24 c4 -14 7 -41 8 -61z"/>
</g>
</svg>
