<?xml version="1.0" standalone="no"?>
<!DOCTYPE svg PUBLIC "-//W3C//DTD SVG 20010904//EN"
 "http://www.w3.org/TR/2001/REC-SVG-20010904/DTD/svg10.dtd">
<svg version="1.0" xmlns="http://www.w3.org/2000/svg"
 width="128.000000pt" height="128.000000pt" viewBox="0 0 128.000000 128.000000"
 preserveAspectRatio="xMidYMid meet">
<metadata>
Created by potrace 1.12, written by Peter Selinger 2001-2015
</metadata>
<g transform="translate(0.000000,128.000000) scale(0.100000,-0.100000)"
fill="#000000" stroke="none">
<path d="M1007 1069 c-47 -11 -88 -32 -148 -74 l-46 -33 -139 3 c-151 4 -165
7 -268 56 -41 19 -86 33 -110 33 -39 1 -41 -1 -54 -39 -8 -22 -16 -80 -19
-130 -3 -49 -9 -95 -14 -101 -15 -19 -40 -97 -50 -154 -11 -66 2 -150 35 -224
56 -126 125 -164 316 -175 179 -10 360 1 441 28 99 31 129 56 169 136 30 59
36 82 38 151 4 71 0 92 -28 170 -29 79 -32 100 -31 189 1 79 -2 107 -16 134
-21 40 -25 42 -76 30z m33 -235 c-11 -36 -9 -50 13 -111 30 -83 41 -150 32
-192 -10 -47 -25 -27 -25 35 0 61 -13 70 -34 22 l-14 -33 -1 43 c-1 23 -5 42
-10 42 -5 0 -25 16 -44 35 -42 42 -59 43 -137 10 -37 -16 -77 -25 -107 -24
-26 0 -42 3 -35 6 17 7 15 43 -3 43 -8 0 -15 -9 -15 -21 0 -16 -5 -20 -27 -17
-24 3 -28 7 -25 31 3 31 -4 34 -28 12 -16 -14 -17 -14 -13 10 4 17 1 25 -8 26
-8 0 -25 3 -39 5 -17 3 -30 -2 -42 -18 -17 -22 -17 -21 -1 20 31 80 -16 69
-54 -14 -14 -30 -27 -53 -29 -51 -2 2 8 30 22 61 19 43 23 61 15 69 -8 8 -23
-2 -55 -38 -45 -51 -69 -56 -48 -10 14 31 16 65 3 65 -5 0 -7 9 -4 20 4 14 0
20 -12 20 -15 0 -15 3 4 36 25 42 26 54 6 54 -8 0 -15 5 -15 10 0 19 25 10 63
-21 20 -17 37 -37 37 -46 0 -12 7 -14 33 -9 67 14 324 18 376 7 52 -11 54 -11
89 20 20 17 58 42 86 55 l51 24 3 -68 c2 -37 -2 -86 -8 -108z m-346 -220 c73
-6 87 -4 141 19 l60 26 27 -29 c31 -33 54 -122 44 -173 -18 -97 -83 -120 -341
-121 -164 -1 -183 1 -215 20 -84 49 -105 144 -51 225 26 38 38 46 88 60 54 15
61 15 112 -3 30 -10 91 -21 135 -24z"/>
<path d="M610 690 c0 -5 5 -10 10 -10 6 0 10 5 10 10 0 6 -4 10 -10 10 -5 0
-10 -4 -10 -10z"/>
<path d="M804 565 c-16 -40 -19 -118 -4 -146 14 -26 54 -24 80 3 27 29 27 101
0 146 -27 44 -57 43 -76 -3z"/>
<path d="M451 564 c-35 -44 -40 -134 -10 -171 18 -21 54 -15 83 13 30 31 35
92 12 149 -19 44 -55 48 -85 9z"/>
</g>
</svg>
