<?xml version="1.0" standalone="no"?>
<!DOCTYPE svg PUBLIC "-//W3C//DTD SVG 20010904//EN"
 "http://www.w3.org/TR/2001/REC-SVG-20010904/DTD/svg10.dtd">
<svg version="1.0" xmlns="http://www.w3.org/2000/svg"
 width="128.000000pt" height="128.000000pt" viewBox="0 0 128.000000 128.000000"
 preserveAspectRatio="xMidYMid meet">
<metadata>
Created by potrace 1.12, written by Peter Selinger 2001-2015
</metadata>
<g transform="translate(0.000000,128.000000) scale(0.100000,-0.100000)"
fill="#000000" stroke="none">
<path d="M682 1215 c-15 -18 -36 -20 -26 -3 4 7 3 8 -4 4 -6 -4 -8 -14 -5 -23
5 -12 3 -14 -7 -8 -9 5 -11 4 -6 -3 4 -7 7 -34 8 -62 0 -27 4 -53 9 -56 12 -7
11 -191 -1 -199 -5 -3 -10 0 -10 7 0 9 -3 9 -10 -2 -13 -20 -17 50 -9 158 2
22 -5 40 -21 57 -29 31 -43 31 -64 1 -11 -18 -27 -26 -53 -28 l-38 -3 -3 -107
-3 -108 -59 0 c-90 0 -90 0 -90 -90 0 -89 1 -90 86 -90 43 0 54 -3 54 -16 0
-13 -11 -15 -69 -12 -38 2 -67 0 -65 -4 2 -4 0 -9 -6 -13 -5 -3 -10 -40 -10
-80 0 -85 -2 -84 100 -88 l55 -2 -1 -60 c0 -33 -3 -79 -5 -102 -6 -46 1 -53
51 -53 28 0 60 -22 60 -41 0 -17 26 -9 50 16 21 22 23 33 22 127 -1 57 1 97 4
91 3 -7 17 -13 31 -13 l26 0 -7 -103 c-7 -101 -7 -103 19 -127 l26 -24 25 27
c17 19 35 27 58 27 42 0 47 19 39 137 l-6 81 59 7 c32 3 68 7 79 8 17 2 20 10
23 59 4 86 -6 98 -82 98 l-63 0 0 30 0 30 61 0 c34 0 67 4 74 9 9 5 12 29 10
82 l-3 74 -68 7 c-38 3 -71 8 -73 10 -7 8 -7 286 1 298 6 9 4 11 -4 5 -9 -5
-12 1 -9 21 3 28 2 28 -46 25 -42 -2 -48 0 -43 14 4 9 3 14 -3 10 -6 -3 -10
-1 -10 4 0 16 -33 13 -48 -4z m73 -130 c0 -27 -6 -22 -23 17 -10 25 -10 27 6
17 9 -6 17 -21 17 -34z m-234 -126 c-5 -13 -10 -19 -10 -12 -1 15 10 45 15 40
3 -2 0 -15 -5 -28z m242 11 c3 -11 1 -18 -4 -14 -5 3 -9 12 -9 20 0 20 7 17
13 -6z m-3 -85 c0 -14 -2 -25 -4 -25 -2 0 -6 11 -8 25 -3 14 -1 25 3 25 5 0 9
-11 9 -25z m-239 -22 c-12 -20 -14 -14 -5 12 4 9 9 14 11 11 3 -2 0 -13 -6
-23z m16 -43 c10 0 14 -6 11 -17 -4 -16 5 -18 93 -18 93 -1 97 0 87 18 -7 14
-7 17 1 12 7 -4 18 -2 24 4 10 8 13 4 11 -18 -2 -24 1 -27 22 -23 13 2 35 1
50 -2 22 -6 24 -9 13 -24 -11 -14 -11 -15 1 -4 19 16 45 15 60 -3 11 -13 7
-15 -26 -15 -22 1 -58 5 -81 9 -24 5 -40 4 -37 0 3 -5 1 -9 -5 -9 -11 0 -8
-154 4 -182 6 -15 19 -17 83 -15 63 2 77 -1 77 -13 0 -10 -12 -16 -32 -18 -18
-2 -33 -7 -33 -13 0 -5 -20 -9 -45 -9 l-45 0 0 -82 c0 -94 -6 -124 -26 -132
-10 -4 -11 0 -3 21 5 14 7 45 3 68 -4 27 -2 45 5 49 18 12 12 36 -9 36 -11 0
-20 7 -20 15 0 9 -9 15 -24 15 -13 0 -26 5 -28 10 -2 6 -29 17 -61 24 -50 12
-58 11 -69 -2 -11 -13 -11 -14 1 -8 9 6 12 5 9 -4 -2 -7 -12 -14 -22 -16 -14
-2 -17 3 -14 19 4 20 0 22 -41 22 -25 0 -45 5 -44 10 1 6 -16 9 -38 9 -21 -1
-39 2 -39 6 0 5 38 8 84 7 68 -2 82 1 78 12 -3 8 -1 12 4 9 12 -8 12 162 1
180 -7 10 -12 10 -23 1 -11 -9 -14 -8 -15 2 0 10 -2 11 -6 2 -6 -17 -113 -18
-113 -2 0 7 13 10 34 7 26 -3 32 0 28 10 -4 11 5 13 44 11 l49 -4 -2 35 c-2
19 0 29 3 23 3 -7 13 -13 21 -13z m-15 -435 c-6 -34 -12 -32 -12 6 0 16 4 28
9 25 4 -3 6 -17 3 -31z"/>
<path d="M550 758 c-1 -2 -2 -51 -3 -109 l-2 -105 35 -3 c19 -1 38 -5 42 -9 4
-4 28 -6 53 -4 l46 4 -1 42 c-3 61 -1 78 8 73 4 -3 7 19 7 47 l0 53 -92 -1
c-50 -1 -89 2 -86 7 2 4 2 7 -1 7 -3 0 -6 -1 -6 -2z m109 -130 c0 -43 -2 -49
-10 -30 -5 13 -13 20 -19 17 -6 -4 -10 8 -10 29 0 29 4 36 20 36 18 0 20 -6
19 -52z"/>
</g>
</svg>
