<?xml version="1.0" standalone="no"?>
<!DOCTYPE svg PUBLIC "-//W3C//DTD SVG 20010904//EN"
 "http://www.w3.org/TR/2001/REC-SVG-20010904/DTD/svg10.dtd">
<svg version="1.0" xmlns="http://www.w3.org/2000/svg"
 width="128.000000pt" height="128.000000pt" viewBox="0 0 128.000000 128.000000"
 preserveAspectRatio="xMidYMid meet">
<metadata>
Created by potrace 1.12, written by Peter Selinger 2001-2015
</metadata>
<g transform="translate(0.000000,128.000000) scale(0.100000,-0.100000)"
fill="#000000" stroke="none">
<path d="M242 1112 c-63 -59 -70 -128 -17 -178 62 -58 137 -55 190 8 20 23 25
41 25 82 0 45 -4 56 -30 81 -23 22 -41 29 -83 33 -48 4 -56 1 -85 -26z m117
-66 c10 -11 10 -20 1 -36 -12 -22 -12 -22 -26 5 -8 15 -14 31 -14 36 0 14 26
10 39 -5z"/>
<path d="M601 874 c-30 -8 -61 -19 -68 -25 -10 -9 -13 -79 -13 -335 0 -374
-10 -344 110 -335 137 11 150 36 133 265 -7 90 -7 135 0 144 13 17 81 52 100
52 30 0 41 -53 45 -220 4 -205 7 -210 117 -210 49 0 78 5 94 16 l23 16 -4 227
c-5 262 -15 311 -78 373 -34 35 -42 38 -91 38 -54 0 -179 -28 -214 -47 -16 -9
-21 -6 -34 21 -19 37 -43 41 -120 20z m61 -114 c19 -47 31 -49 96 -16 26 13
75 32 110 41 55 16 68 16 105 5 59 -19 63 -23 81 -95 16 -66 22 -281 9 -358
-5 -35 -8 -38 -37 -35 l-31 3 3 130 c4 126 3 132 -24 180 -42 77 -62 95 -104
95 -46 0 -94 -16 -143 -48 l-38 -25 3 -164 c3 -179 4 -179 -58 -167 -39 7 -43
24 -18 93 13 40 13 45 -2 62 -14 16 -15 24 -4 61 22 78 23 97 8 103 -13 5 -13
13 0 62 15 51 15 56 -1 68 -25 18 -22 45 6 45 16 0 26 -10 39 -40z"/>
<path d="M276 815 c-37 -7 -72 -18 -76 -25 -4 -7 -11 -147 -15 -312 -6 -249
-5 -302 7 -314 11 -11 26 -12 73 -4 33 5 81 10 106 10 81 0 78 -14 81 328 3
291 2 304 -16 318 -23 16 -64 16 -160 -1z m100 -147 c-3 -40 -9 -151 -13 -245
-5 -136 -9 -173 -19 -173 -8 0 -14 6 -14 14 0 7 -6 19 -14 26 -8 6 -12 18 -9
26 3 7 -2 17 -11 20 -12 5 -13 11 -6 24 13 24 13 60 0 60 -5 0 -7 7 -3 16 4
10 0 20 -9 25 -14 8 -13 16 9 69 21 54 23 67 15 126 -8 62 -8 66 12 74 12 5
32 9 45 9 23 1 24 0 17 -71z"/>
</g>
</svg>
