<?xml version="1.0" standalone="no"?>
<!DOCTYPE svg PUBLIC "-//W3C//DTD SVG 20010904//EN"
 "http://www.w3.org/TR/2001/REC-SVG-20010904/DTD/svg10.dtd">
<svg version="1.0" xmlns="http://www.w3.org/2000/svg"
 width="128.000000pt" height="128.000000pt" viewBox="0 0 128.000000 128.000000"
 preserveAspectRatio="xMidYMid meet">
<metadata>
Created by potrace 1.12, written by Peter Selinger 2001-2015
</metadata>
<g transform="translate(0.000000,128.000000) scale(0.100000,-0.100000)"
fill="#000000" stroke="none">
<path d="M635 1189 c-222 -32 -404 -176 -476 -374 -33 -90 -33 -254 0 -350 89
-260 218 -354 494 -360 64 -1 120 1 123 6 3 5 13 9 22 9 35 0 133 60 190 116
180 177 242 419 162 636 -26 73 -42 99 -95 155 -76 82 -151 129 -247 154 -78
21 -84 21 -173 8z m210 -109 c33 -20 79 -61 107 -95 27 -33 60 -73 74 -90 61
-74 81 -212 48 -339 -17 -67 -80 -195 -100 -203 -7 -2 -32 11 -58 30 -72 56
-133 72 -267 72 l-116 0 -89 -45 c-49 -25 -92 -46 -96 -48 -5 -2 -8 6 -8 18 0
13 -8 24 -18 27 -16 4 -18 12 -14 54 4 42 2 49 -13 49 -12 0 -15 5 -10 18 4 9
13 34 19 55 9 33 8 40 -5 48 -14 7 -15 15 -5 50 9 36 8 43 -7 54 -17 12 -17
16 -2 76 29 110 58 153 146 209 118 76 195 101 295 97 49 -2 72 -10 119 -37z
m-124 -769 c71 -25 109 -43 109 -51 0 -18 -94 -33 -170 -27 -80 6 -210 36
-210 48 0 3 24 16 53 27 66 26 148 27 218 3z"/>
<path d="M608 930 c-163 -28 -284 -94 -264 -146 8 -21 51 -17 105 10 67 35
164 58 248 59 69 2 73 1 132 -40 61 -44 97 -53 119 -31 21 21 13 46 -25 78
-69 56 -130 80 -202 79 -37 -1 -87 -5 -113 -9z"/>
<path d="M585 773 c-105 -23 -175 -67 -175 -109 0 -36 20 -38 89 -10 71 30
184 49 244 40 23 -4 68 -18 99 -31 32 -14 64 -23 73 -20 44 17 -10 97 -82 121
-44 15 -197 21 -248 9z"/>
<path d="M503 611 c-52 -25 -63 -34 -63 -55 0 -35 28 -40 81 -16 60 27 155 27
220 -1 56 -25 82 -15 77 29 -5 40 -65 65 -167 70 -79 3 -91 1 -148 -27z"/>
</g>
</svg>
