<?xml version="1.0" standalone="no"?>
<!DOCTYPE svg PUBLIC "-//W3C//DTD SVG 20010904//EN"
 "http://www.w3.org/TR/2001/REC-SVG-20010904/DTD/svg10.dtd">
<svg version="1.0" xmlns="http://www.w3.org/2000/svg"
 width="128.000000pt" height="128.000000pt" viewBox="0 0 128.000000 128.000000"
 preserveAspectRatio="xMidYMid meet">
<metadata>
Created by potrace 1.12, written by Peter Selinger 2001-2015
</metadata>
<g transform="translate(0.000000,128.000000) scale(0.100000,-0.100000)"
fill="#000000" stroke="none">
<path d="M925 1065 c-49 -17 -111 -83 -125 -134 -5 -20 -10 -57 -10 -83 0 -49
-6 -59 -118 -209 -31 -41 -37 -44 -90 -50 l-57 -5 -80 85 c-79 84 -80 85 -77
132 4 56 -18 110 -56 136 -19 13 -46 18 -95 18 -66 0 -70 -1 -103 -37 -34 -38
-41 -65 -36 -141 4 -60 54 -102 135 -113 39 -6 52 -16 126 -95 l83 -89 -7 -58
c-6 -52 -3 -61 24 -105 36 -55 78 -84 137 -93 85 -12 162 41 184 128 6 24 14
50 19 58 16 29 236 170 291 186 83 24 108 41 141 92 25 40 29 55 29 121 0 92
-22 144 -86 200 -62 54 -162 79 -229 56z m94 -66 c58 -12 91 -36 132 -92 40
-55 40 -109 0 -165 -31 -41 -39 -46 -103 -56 -78 -14 -143 48 -173 162 -18 71
-11 96 35 135 36 30 40 31 109 16z m-750 -105 c28 -35 28 -61 1 -34 -22 22
-69 27 -88 8 -7 -7 -12 -27 -12 -45 0 -24 7 -38 30 -55 36 -26 38 -38 6 -38
-29 0 -66 42 -66 75 0 40 22 85 49 100 38 21 57 18 80 -11z m639 -266 l23 -15
-25 -16 c-21 -14 -25 -14 -30 -2 -10 26 -35 16 -45 -17 l-9 -33 -1 28 c-1 23
-5 28 -23 25 -17 -2 -25 -13 -33 -47 l-11 -44 -17 26 c-9 14 -17 30 -17 34 0
4 26 33 57 65 l57 58 26 -24 c14 -12 35 -30 48 -38z m-268 -133 c21 -11 32
-27 40 -56 14 -50 7 -71 -32 -104 -38 -32 -81 -28 -115 11 -37 41 -26 55 12
17 27 -27 39 -33 57 -27 13 4 26 12 30 18 14 21 8 81 -12 119 -22 42 -21 43
20 22z"/>
<path d="M967 944 c-30 -16 -47 -49 -47 -91 0 -39 68 -99 121 -108 52 -9 78
13 86 73 14 104 -73 173 -160 126z m93 -73 c17 -33 12 -53 -12 -49 -23 3 -34
28 -24 54 8 20 23 18 36 -5z"/>
</g>
</svg>
