<?xml version="1.0" standalone="no"?>
<!DOCTYPE svg PUBLIC "-//W3C//DTD SVG 20010904//EN"
 "http://www.w3.org/TR/2001/REC-SVG-20010904/DTD/svg10.dtd">
<svg version="1.0" xmlns="http://www.w3.org/2000/svg"
 width="128.000000pt" height="128.000000pt" viewBox="0 0 128.000000 128.000000"
 preserveAspectRatio="xMidYMid meet">
<metadata>
Created by potrace 1.12, written by Peter Selinger 2001-2015
</metadata>
<g transform="translate(0.000000,128.000000) scale(0.100000,-0.100000)"
fill="#000000" stroke="none">
<path d="M722 1134 c-85 -42 -135 -119 -148 -226 l-7 -56 -44 13 c-24 7 -56
21 -71 31 -54 35 -178 145 -202 180 -52 73 -56 77 -76 70 -25 -8 -70 -99 -79
-160 -9 -61 9 -128 47 -168 22 -24 26 -33 16 -39 -7 -5 -16 -9 -20 -9 -4 0
-14 -7 -22 -16 -14 -14 -14 -18 -1 -45 24 -45 77 -101 109 -114 29 -12 29 -13
8 -24 -63 -33 21 -141 109 -141 45 0 25 -20 -62 -60 -66 -30 -73 -31 -114 -20
-50 14 -65 8 -65 -26 0 -37 27 -71 92 -115 103 -71 281 -88 439 -44 99 28 129
45 232 127 118 94 206 252 242 430 4 20 21 38 60 63 84 53 84 72 0 114 -25 12
-45 25 -45 28 0 3 9 20 20 38 28 45 50 112 44 130 -8 21 -24 19 -99 -11 l-65
-26 -46 41 c-76 67 -164 79 -252 35z m222 -114 c59 -55 66 -56 126 -11 l34 25
-37 -67 c-20 -37 -37 -72 -37 -78 0 -5 18 -18 41 -28 l40 -18 -25 -20 c-14
-11 -32 -38 -40 -59 -46 -124 -61 -156 -78 -165 -11 -6 -18 -21 -18 -40 0 -39
-37 -89 -66 -89 -18 0 -23 -6 -26 -32 -3 -32 -28 -53 -28 -23 0 10 -7 15 -17
13 -12 -2 -19 -14 -21 -38 -4 -40 -22 -67 -22 -32 0 15 -6 22 -20 22 -16 0
-20 -7 -21 -37 l-1 -38 -9 33 c-11 39 -40 41 -49 4 -3 -13 -9 -23 -14 -22 -5
1 -15 -11 -22 -27 -8 -19 -13 -22 -13 -10 -1 24 -41 23 -41 -1 0 -20 -42 -39
-110 -48 -51 -7 -140 7 -197 31 l-38 17 46 17 c148 57 277 219 214 271 -12 10
-21 8 -49 -10 -37 -22 -128 -41 -145 -30 -6 3 11 27 39 55 57 56 67 95 25 95
-14 0 -25 5 -25 10 0 19 -32 10 -37 -10 -7 -27 -27 -20 -31 9 -3 17 -9 22 -23
18 -34 -9 -25 40 11 58 30 15 39 38 20 50 -5 3 -10 15 -10 26 0 10 -7 19 -15
19 -9 0 -15 9 -15 21 0 16 -5 20 -19 16 -17 -4 -18 -1 -10 27 5 17 9 32 9 33
0 2 -9 3 -21 3 -13 0 -18 4 -13 12 4 6 -1 17 -10 24 -12 8 -16 19 -11 33 9 29
18 26 40 -11 29 -52 62 -87 130 -143 78 -65 143 -97 206 -103 l47 -4 9 -47 c6
-36 12 -46 28 -46 12 0 21 8 23 20 2 11 8 30 15 43 8 17 8 28 0 42 -9 14 -9
22 2 36 19 26 19 44 -2 44 -14 0 -13 3 5 23 24 26 29 47 10 47 -7 0 -1 8 15
18 28 17 36 47 15 55 -7 2 9 18 36 35 39 25 61 32 99 32 44 0 53 -4 101 -50z"/>
<path d="M837 979 c-18 -11 -23 -54 -8 -77 4 -8 19 -12 32 -10 20 2 25 10 27
40 4 42 -20 64 -51 47z"/>
</g>
</svg>
